<?xml version="1.0" encoding="utf-8"?>
<!-- Generator: Adobe Illustrator 23.0.3, SVG Export Plug-In . SVG Version: 6.00 Build 0)  -->
<svg version="1.1" xmlns="http://www.w3.org/2000/svg" xmlns:xlink="http://www.w3.org/1999/xlink" x="0px" y="0px"
	 viewBox="0 0 504 504" style="enable-background:new 0 0 504 504;" xml:space="preserve">
<style type="text/css">
	.st0{fill:#F71725;}
	.st1{fill:#EEE0CB;}
</style>
<g id="Camada_2">
	<path class="st0" d="M252,503L252,503C113.4,503,1,390.6,1,252v0C1,113.4,113.4,1,252,1h0c138.6,0,251,112.4,251,251v0
		C503,390.6,390.6,503,252,503z"/>
</g>
<g id="Capa_1">
	<g>
		<g>
			<g>
				<polygon class="st1" points="264.9,137.8 247.6,118.2 92.6,255 326.1,461 343.4,441.4 132.2,255 				"/>
				
					<rect x="311.8" y="54.4" transform="matrix(0.7501 -0.6613 0.6613 0.7501 36.5826 231.7322)" class="st1" width="26.2" height="26.2"/>
				
					<rect x="272.6" y="89" transform="matrix(0.7501 -0.6613 0.6613 0.7501 3.8934 214.443)" class="st1" width="26.2" height="26.2"/>
			</g>
		</g>
	</g>
</g>
</svg>
