<?xml version="1.0" encoding="utf-8"?>
<!-- Generator: Adobe Illustrator 23.0.3, SVG Export Plug-In . SVG Version: 6.00 Build 0)  -->
<svg version="1.1" id="Capa_1" xmlns="http://www.w3.org/2000/svg" xmlns:xlink="http://www.w3.org/1999/xlink" x="0px" y="0px"
	 viewBox="0 0 54 54" style="enable-background:new 0 0 54 54;" xml:space="preserve">
<style type="text/css">
	.st0{fill:#EEE0CB;stroke:#EEE0CB;stroke-width:0.75;stroke-miterlimit:10;}
</style>
<g>
	<path class="st0" d="M50,21h-4.8c-0.8,0-1.4-0.4-1.7-1.2c-0.3-0.7-0.1-1.5,0.4-2.1l3.4-3.5c0.5-0.5,0.8-1.2,0.8-1.9
		c0-0.7-0.3-1.4-0.8-1.9L42.9,6c-1-1-2.8-1-3.8,0l-3.4,3.5c-0.5,0.6-1.3,0.7-2,0.4c-0.7-0.3-1.1-1-1.1-1.7V3.2
		c0-1.5-1.2-2.7-2.7-2.7h-6.2c-1.5,0-2.7,1.2-2.7,2.7v4.9c0,0.8-0.4,1.4-1.1,1.7c-0.7,0.3-1.5,0.1-2-0.4L14.5,6c-1-1-2.8-1-3.8,0
		l-4.4,4.4c-0.5,0.5-0.8,1.2-0.8,1.9c0,0.7,0.3,1.4,0.8,1.9l3.4,3.5c0.5,0.6,0.7,1.3,0.4,2.1C9.9,20.5,9.3,21,8.5,21H3.7
		C2.2,21,1,22.2,1,23.7v6.3c0,1.5,1.2,2.7,2.7,2.7h4.8c0.8,0,1.4,0.4,1.7,1.2c0.3,0.7,0.1,1.5-0.4,2.1l-3.4,3.5
		c-0.5,0.5-0.8,1.2-0.8,1.9c0,0.7,0.3,1.4,0.8,1.9l4.4,4.4c1,1,2.8,1,3.8,0l3.4-3.5c0.5-0.6,1.3-0.7,2-0.4c0.7,0.3,1.1,1,1.1,1.7
		v4.9c0,1.5,1.2,2.7,2.7,2.7h6.2c1.5,0,2.7-1.2,2.7-2.7v-4.9c0-0.8,0.4-1.4,1.1-1.7c0.7-0.3,1.5-0.1,2,0.4l3.4,3.5c1,1,2.8,1,3.8,0
		l4.4-4.4c0.5-0.5,0.8-1.2,0.8-1.9c0-0.7-0.3-1.4-0.8-1.9l-3.4-3.5c-0.5-0.6-0.7-1.3-0.4-2.1c0.3-0.7,0.9-1.2,1.7-1.2H50
		c1.5,0,2.7-1.2,2.7-2.7v-6.3C52.7,22.2,51.5,21,50,21z M50.8,29.9c0,0.4-0.3,0.8-0.7,0.8h-4.8c-1.6,0-2.9,0.9-3.5,2.4
		c-0.6,1.5-0.3,3.1,0.8,4.2l3.4,3.5c0.3,0.3,0.3,0.8,0,1.1l-4.4,4.4c-0.3,0.3-0.8,0.3-1.1,0l-3.4-3.5c-1.1-1.1-2.7-1.4-4.1-0.8
		c-1.4,0.6-2.3,2-2.3,3.5v4.9c0,0.4-0.3,0.8-0.7,0.8h-6.2c-0.4,0-0.7-0.3-0.7-0.8v-4.9c0-1.6-0.9-2.9-2.3-3.5
		c-0.5-0.2-1-0.3-1.5-0.3c-1,0-1.9,0.4-2.6,1.1l-3.4,3.5c-0.3,0.3-0.8,0.3-1.1,0l-4.4-4.4c-0.3-0.3-0.3-0.8,0-1.1l3.4-3.5
		c1.1-1.1,1.4-2.7,0.8-4.2c-0.6-1.5-1.9-2.4-3.5-2.4H3.7c-0.4,0-0.7-0.3-0.7-0.8v-6.3c0-0.4,0.3-0.8,0.7-0.8h4.8
		c1.6,0,2.9-0.9,3.5-2.4c0.6-1.5,0.3-3.1-0.8-4.2l-3.4-3.5c-0.3-0.3-0.3-0.8,0-1.1l4.4-4.4c0.3-0.3,0.8-0.3,1.1,0l3.4,3.5
		c1.1,1.1,2.7,1.4,4.1,0.8c1.4-0.6,2.3-2,2.3-3.5V3.2c0-0.4,0.3-0.8,0.7-0.8h6.2c0.4,0,0.7,0.3,0.7,0.8v4.9c0,1.6,0.9,2.9,2.3,3.5
		c1.4,0.6,3,0.3,4.1-0.8l3.4-3.5c0.3-0.3,0.8-0.3,1.1,0l4.4,4.4c0.3,0.3,0.3,0.8,0,1.1l-3.4,3.5c-1.1,1.1-1.4,2.7-0.8,4.2
		c0.6,1.5,1.9,2.4,3.5,2.4H50c0.4,0,0.7,0.3,0.7,0.8V29.9z"/>
	<path class="st0" d="M26.8,18c-4.7,0-8.6,3.9-8.6,8.8s3.9,8.8,8.6,8.8s8.6-3.9,8.6-8.8S31.6,18,26.8,18z M26.8,33.6
		c-3.7,0-6.7-3.1-6.7-6.8s3-6.8,6.7-6.8s6.7,3.1,6.7,6.8S30.5,33.6,26.8,33.6z"/>
</g>
</svg>
