<?xml version="1.0" encoding="utf-8"?>
<!-- Generator: Adobe Illustrator 23.0.3, SVG Export Plug-In . SVG Version: 6.00 Build 0)  -->
<svg version="1.1" id="Capa_1" xmlns="http://www.w3.org/2000/svg" xmlns:xlink="http://www.w3.org/1999/xlink" x="0px" y="0px"
	 viewBox="0 0 512 512" style="enable-background:new 0 0 512 512;" xml:space="preserve">
<style type="text/css">
	.st0{fill:#EEE0CB;}
</style>
<g>
	<g>
		<path class="st0" d="M261.6,428.3H111.2c-9.2,0-16.8-7.8-16.8-17.3V99.5c0-9.6,7.5-17.3,16.8-17.3h150.5c9.3,0,16.8-7.8,16.8-17.3
			s-7.5-17.3-16.8-17.3H111.2C83.5,47.6,61,70.9,61,99.5V411c0,28.6,22.5,51.9,50.2,51.9h150.5c9.3,0,16.8-7.8,16.8-17.3
			C278.3,436,270.9,428.3,261.6,428.3z"/>
	</g>
</g>
<g>
	<g>
		<path class="st0" d="M504.5,242.2L393.5,135.3c-7.2-6.9-18.8-6.8-25.8,0.2c-7.1,7-7,18.3,0.2,25.2l79.4,76.4H234.5
			c-10.1,0-18.3,7.9-18.3,17.8s8.1,17.8,18.3,17.8h212.7l-79.4,76.4c-7.2,6.9-7.3,18.2-0.2,25.2c3.5,3.5,8.3,5.3,13,5.3
			c4.6,0,9.3-1.7,12.8-5.2l111.1-106.9c3.4-3.4,5.5-7.9,5.5-12.7C510,250.2,508.1,245.7,504.5,242.2z"/>
	</g>
</g>
</svg>
