<?xml version="1.0" encoding="utf-8"?>
<!-- Generator: Adobe Illustrator 23.0.3, SVG Export Plug-In . SVG Version: 6.00 Build 0)  -->
<svg version="1.1" xmlns="http://www.w3.org/2000/svg" xmlns:xlink="http://www.w3.org/1999/xlink" x="0px" y="0px"
	 viewBox="0 0 504 504" style="enable-background:new 0 0 504 504;" xml:space="preserve">
<style type="text/css">
	.st0{fill:#F71725;}
	.st1{fill:#EEE0CB;}
</style>
<g id="Camada_2">
</g>
<g id="Capa_1">
	<path class="st0" d="M252,503L252,503c138.6,0,251-112.4,251-251v0C503,113.4,390.6,1,252,1h0C113.4,1,1,113.4,1,252v0
		C1,390.6,113.4,503,252,503z"/>
	<g>
		<g>
			<g>
				<polygon class="st1" points="375.8,255 164.6,441.4 181.9,461 415.4,255 260.4,118.2 243.1,137.8 				"/>
				
					<rect x="170" y="54.4" transform="matrix(0.6613 -0.7501 0.7501 0.6613 11.4042 160.1763)" class="st1" width="26.2" height="26.2"/>
				
					<rect x="209.2" y="89" transform="matrix(0.6613 -0.7501 0.7501 0.6613 -1.2734 201.3192)" class="st1" width="26.2" height="26.2"/>
			</g>
		</g>
	</g>
</g>
</svg>
