<?xml version="1.0" encoding="utf-8"?>
<!-- Generator: Adobe Illustrator 23.0.3, SVG Export Plug-In . SVG Version: 6.00 Build 0)  -->
<svg version="1.1" id="Layer_1" xmlns="http://www.w3.org/2000/svg" xmlns:xlink="http://www.w3.org/1999/xlink" x="0px" y="0px"
	 viewBox="0 0 512 512" style="enable-background:new 0 0 512 512;" xml:space="preserve">
<style type="text/css">
	.st0{fill:#EEE0CB;stroke:#EEE0CB;stroke-width:7;stroke-miterlimit:10;}
</style>
<path class="st0" d="M484.8,398.1L470.1,263c-1.9-17.1-16.2-30-33.4-30h-10.7v-24.6c0-32.5-26.4-58.9-58.9-58.9
	c-32.5,0-58.9,26.4-58.9,58.9V233h-10.7c-17.2,0-31.6,12.9-33.4,30l-14.7,135.1c-2.2,19.9,13.4,37.3,33.4,37.3h168.7
	C471.3,435.4,487,418.1,484.8,398.1L484.8,398.1z M451.4,418.6H282.7c-10,0-17.8-8.7-16.7-18.6l14.7-135.1c0.9-8.5,8.1-15,16.7-15
	h10.7v21.2c0,4.6,3.8,8.4,8.4,8.4c4.6,0,8.4-3.8,8.4-8.4v-62.6c0-23.2,18.9-42.1,42.1-42.1c23.2,0,42.1,18.9,42.1,42.1V233h-53.2
	c-4.6,0-8.4,3.8-8.4,8.4c0,4.6,3.8,8.4,8.4,8.4h53.2v21.2c0,4.6,3.8,8.4,8.4,8.4c4.6,0,8.4-3.8,8.4-8.4v-21.2h10.7
	c8.6,0,15.8,6.4,16.7,15L468.1,400C469.2,409.9,461.4,418.6,451.4,418.6z M396.4,467c-4.6,0-8.4,3.8-8.4,8.4
	c0,9.3-7.5,16.8-16.8,16.8H53.8c-9.3,0-16.8-7.5-16.8-16.8V38.1c0-9.3,7.5-16.8,16.8-16.8h236.5v64.1c0,18.5,15.1,33.6,33.6,33.6
	h72.5c7.5,0,11.2-9.1,5.9-14.4C297.1-0.6,303.9,5.3,300.3,4.6c-1.2-0.2,12.2-0.2-246.6-0.2c-18.5,0-33.6,15.1-33.6,33.6v437.3
	c0,18.5,15.1,33.6,33.6,33.6h317.4c18.5,0,33.6-15.1,33.6-33.6C404.9,470.7,401.1,467,396.4,467z M323.9,102.2
	c-9.3,0-16.8-7.5-16.8-16.8V33.2l69,69H323.9z M153.8,128.5c0-14-11.3-25.3-25.2-25.3h-17c-13.9,0-25.2,11.3-25.2,25.2v16.9
	c0,13.9,11.3,25.2,25.2,25.2h16.9c13.9,0,25.2-11.3,25.2-25.2L153.8,128.5z M136.9,145.4c0,4.6-3.8,8.4-8.4,8.4h-16.9
	c-4.6,0-8.4-3.8-8.4-8.4v-16.9c0-4.6,3.8-8.4,8.4-8.4h17c4.7,0,8.4,3.8,8.4,8.4L136.9,145.4z M153.6,254.6
	c0-13.9-11.3-25.2-25.2-25.2h-16.8c-13.9,0-25.2,11.3-25.2,25.2v16.8c0,13.9,11.3,25.2,25.2,25.2h16.8c13.9,0,25.2-11.3,25.2-25.2
	V254.6z M136.8,271.4c0,4.6-3.8,8.4-8.4,8.4h-16.8c-4.6,0-8.4-3.8-8.4-8.4v-16.8c0-4.6,3.8-8.4,8.4-8.4h16.8c4.6,0,8.4,3.8,8.4,8.4
	V271.4z M128.4,355.5h-16.8c-13.9,0-25.2,11.3-25.2,25.2v16.8c0,13.9,11.3,25.2,25.2,25.2h16.8c13.9,0,25.2-11.3,25.2-25.2v-16.8
	C153.6,366.9,142.3,355.5,128.4,355.5z M136.8,397.6c0,4.6-3.8,8.4-8.4,8.4h-16.8c-4.6,0-8.4-3.8-8.4-8.4v-16.8
	c0-4.6,3.8-8.4,8.4-8.4h16.8c4.6,0,8.4,3.8,8.4,8.4V397.6z M252.6,145.3h-57.8c-4.6,0-8.4-3.8-8.4-8.4c0-4.6,3.8-8.4,8.4-8.4h57.8
	c4.6,0,8.4,3.8,8.4,8.4C261,141.5,257.2,145.3,252.6,145.3z M228.4,271.4h-33.6c-4.6,0-8.4-3.8-8.4-8.4c0-4.6,3.8-8.4,8.4-8.4h33.6
	c4.6,0,8.4,3.8,8.4,8.4C236.8,267.7,233,271.4,228.4,271.4z M215.8,380.8c4.6,0,8.4,3.8,8.4,8.4s-3.8,8.4-8.4,8.4h-21
	c-4.6,0-8.4-3.8-8.4-8.4s3.8-8.4,8.4-8.4H215.8z"/>
</svg>
